<svg xmlns="http://www.w3.org/2000/svg" viewBox="0 0 1600 900" width="1600" height="900" role="img" aria-label="Crochet poncho pattern hero placeholder">
  <defs>
    <linearGradient id="bg" x1="0" y1="0" x2="1" y2="1">
      <stop offset="0" stop-color="#F8D7E5"/>
      <stop offset="1" stop-color="#FFF7EF"/>
    </linearGradient>
    <linearGradient id="cloth" x1="0" y1="0" x2="0" y2="1">
      <stop offset="0" stop-color="#FFF5F9"/>
      <stop offset="1" stop-color="#F8D7E5"/>
    </linearGradient>
  </defs>

  <rect width="1600" height="900" fill="url(#bg)"/>
  <circle cx="185" cy="155" r="125" fill="#E9E2FF" opacity="0.65"/>
  <circle cx="1435" cy="765" r="165" fill="#DFF7EF" opacity="0.65"/>
  <circle cx="1405" cy="145" r="58" fill="#FFFDFB" opacity="0.8"/>

  <rect x="365" y="175" width="870" height="510" rx="40" fill="#FFFFFF" stroke="#F8D7E5" stroke-width="4"/>

  <!-- poncho icon -->
  <g transform="translate(800 335)" stroke="#7A3E55" stroke-width="9" fill="none" stroke-linecap="round" stroke-linejoin="round">
    <path d="M-34 -68 C-16 -50 16 -50 34 -68 L96 -34 C112 -25 118 -6 110 10 L74 78 C68 90 54 96 42 90 L0 70 L-42 90 C-54 96 -68 90 -74 78 L-110 10 C-118 -6 -112 -25 -96 -34 Z" fill="url(#cloth)"/>
    <path d="M-34 -68 C-24 -44 24 -44 34 -68"/>
    <path d="M-84 62 C-52 78 52 78 84 62" stroke-dasharray="13 11"/>
  </g>

  <!-- flower motifs along the hem -->
  <g transform="translate(800 470)" fill="#7A3E55">
    <g transform="translate(-150 0)" opacity="0.9">
      <circle cx="0" cy="-16" r="11"/><circle cx="15" cy="-5" r="11"/><circle cx="9" cy="13" r="11"/><circle cx="-9" cy="13" r="11"/><circle cx="-15" cy="-5" r="11"/>
      <circle cx="0" cy="0" r="7" fill="#FFF7EF"/>
    </g>
    <g transform="translate(-75 0)" opacity="0.75">
      <circle cx="0" cy="-16" r="11"/><circle cx="15" cy="-5" r="11"/><circle cx="9" cy="13" r="11"/><circle cx="-9" cy="13" r="11"/><circle cx="-15" cy="-5" r="11"/>
      <circle cx="0" cy="0" r="7" fill="#FFF7EF"/>
    </g>
    <g transform="translate(0 0)" opacity="0.9">
      <circle cx="0" cy="-16" r="11"/><circle cx="15" cy="-5" r="11"/><circle cx="9" cy="13" r="11"/><circle cx="-9" cy="13" r="11"/><circle cx="-15" cy="-5" r="11"/>
      <circle cx="0" cy="0" r="7" fill="#FFF7EF"/>
    </g>
    <g transform="translate(75 0)" opacity="0.75">
      <circle cx="0" cy="-16" r="11"/><circle cx="15" cy="-5" r="11"/><circle cx="9" cy="13" r="11"/><circle cx="-9" cy="13" r="11"/><circle cx="-15" cy="-5" r="11"/>
      <circle cx="0" cy="0" r="7" fill="#FFF7EF"/>
    </g>
    <g transform="translate(150 0)" opacity="0.9">
      <circle cx="0" cy="-16" r="11"/><circle cx="15" cy="-5" r="11"/><circle cx="9" cy="13" r="11"/><circle cx="-9" cy="13" r="11"/><circle cx="-15" cy="-5" r="11"/>
      <circle cx="0" cy="0" r="7" fill="#FFF7EF"/>
    </g>
  </g>

  <text x="800" y="556" text-anchor="middle" font-family="Fredoka, 'Segoe UI', sans-serif" font-size="50" font-weight="700" fill="#7A3E55">Crochet Poncho Pattern</text>
  <text x="800" y="612" text-anchor="middle" font-family="Inter, 'Segoe UI', sans-serif" font-size="26" fill="#7A3E55" opacity="0.75">Flower Power Granny Poncho · Beginner · US Terms</text>
  <text x="800" y="662" text-anchor="middle" font-family="Inter, 'Segoe UI', sans-serif" font-size="20" fill="#7A3E55" opacity="0.5">Hero image placeholder</text>
</svg>
